<svg fill="#fff" xmlns="http://www.w3.org/2000/svg" data-name="EX OutLine copy 2" viewBox="0 0 64 64" x="0px" y="0px"><title>mountain-snow-nature-landscpe</title><path d="M56.137,22A3.815,3.815,0,0,0,60,18a3.794,3.794,0,0,0-3.057-3.888C56.68,11.973,55.442,9,52,9c-3.383,0-4.637,2.871-4.929,5H38a4.294,4.294,0,0,0-1.246.2l-3.825-9.57a1,1,0,0,0-1.858,0L28.923,10H19.932c-.283-2.129-1.491-5-4.75-5-3.568,0-4.85,2.973-5.123,5.111A3.8,3.8,0,0,0,7,14a3.888,3.888,0,0,0,4,4H25.723L21.486,28.593,17.471,26.45a1.017,1.017,0,0,0-.781-.068,1,1,0,0,0-.589.514L11.009,37.389,9.962,33.726a1,1,0,0,0-1.924,0l-4,14A1,1,0,0,0,5,49H8v5h2V49H28.929a3.975,3.975,0,0,1,2.829,1.172l.431.431-7.5,4.772A4,4,0,0,1,22.544,56H14v2h8.544a6.007,6.007,0,0,0,3.222-.937l8.542-5.438A4,4,0,0,1,36.456,51h7.932l-1.35,4.726A1,1,0,0,0,44,57h3v5h2V57h3a1,1,0,0,0,.962-1.274L51.612,51H54v5h2V51h3a1,1,0,0,0,.962-1.274l-4-14a1,1,0,0,0-1.924,0l-.812,2.84-8.4-12.135A1,1,0,0,0,44.067,26a1.014,1.014,0,0,0-.8.323l-1.155,1.263L39.873,22ZM49,16V15c0-.163.034-4,3-4,2.943,0,3,3.839,3,4v1h1a1.883,1.883,0,0,1,2,2,1.808,1.808,0,0,1-1.863,2H55V18H53v2H38a1.883,1.883,0,0,1-2-2,1.883,1.883,0,0,1,2-2ZM32,7.693l3.026,7.571A3.819,3.819,0,0,0,34,18a3.818,3.818,0,0,0,3.325,3.939l-1.47,2.612-3.074-3.843a1.034,1.034,0,0,0-1.562,0l-3.074,3.843-1.688-3ZM14,16V14H12v2H11a1.883,1.883,0,0,1-2-2,1.883,1.883,0,0,1,2-2h1V11c0-.163.036-4,3.182-4C17.947,7,18,10.839,18,11v1H28.123l-1.6,4ZM6.326,47,9,37.64,11.674,47ZM33.96,49.546l-.788-.788A5.961,5.961,0,0,0,28.929,47H13.755L13.1,44.7l3.62-3.407L19.2,44.6a1,1,0,0,0,.729.4.974.974,0,0,0,.778-.29l2.278-2.278,2.335,2.43a1,1,0,0,0,.722.308l.074,0a1,1,0,0,0,.741-.418l2.273-3.2L36.586,49h-.13A5.987,5.987,0,0,0,33.96,49.546ZM18.181,39.909l4.8-4.515L27.7,40.11,25.926,42.6l-2.2-2.3A1,1,0,0,0,23.01,40a.919.919,0,0,0-.717.293l-2.185,2.185ZM45.326,55,48,45.64,50.674,55Zm12.348-6H52.326L55,39.64Zm-7.031-1.391-1.681-5.883a1,1,0,0,0-1.924,0L44.96,49H39.414l-7.406-7.406,3.522-3.851,5.076,2.176A.989.989,0,0,0,41,40a1,1,0,0,0,.707-.293L44,37.414l2.293,2.293a1,1,0,0,0,1.222.15l2.948-1.768,2.053,2.965ZM43.892,28.6l5.43,7.84-2.167,1.3-2.448-2.448a1,1,0,0,0-1.414,0l-2.522,2.521-3.812-1.633Zm-13.3,11.577-6.886-6.885a1,1,0,0,0-1.393-.022L12.477,42.53l-.645-2.258L17.446,28.7l4.083,2.179a1.018,1.018,0,0,0,.814.056,1,1,0,0,0,.586-.568L25.5,23.934l1.625,2.889a1,1,0,0,0,.79.507q.041,0,.081,0a1,1,0,0,0,.781-.375L32,22.934l3.219,4.024a1,1,0,0,0,1.652-.135l1.623-2.885,2.114,5.289Z"/><rect x="6" y="56" width="5" height="2" fill="fff"/></svg>
